<svg viewBox="0 0 1200 300" xmlns="http://www.w3.org/2000/svg">
  <rect width="1200" height="300" fill="#1B2430"/>
  <g transform="translate(-16.16,-39.56) scale(0.56)">
  <path d="M 128 300 C 92 322, 86 362, 103 398" stroke="#5A8FBF" stroke-width="11" fill="none" stroke-linecap="round"/>
  <rect x="175" y="402" width="50" height="114" rx="22" fill="#5A8FBF"/>
  <rect x="250" y="402" width="50" height="114" rx="22" fill="#5A8FBF"/>
  <rect x="325" y="402" width="50" height="114" rx="22" fill="#7FB0DA"/>
  <rect x="384" y="382" width="50" height="134" rx="22" fill="#7FB0DA"/>
  <ellipse cx="290" cy="330" rx="165" ry="120" fill="#6FA6D6"/>
  <circle cx="440" cy="275" r="95" fill="#6FA6D6"/>
  <path d="M 425 210 C 393 200, 367 225, 368 263 C 369 297, 395 320, 430 317 C 443 316, 450 307, 445 296 C 433 270, 433 240, 445 219 C 451 209, 439 205, 425 210 Z" fill="#5A8FBF"/>
  <path d="M 520 300 C 562 300, 580 248, 560 210 C 547 185, 516 188, 511 214" stroke="#6FA6D6" stroke-width="36" fill="none" stroke-linecap="round"/>
  <circle cx="470" cy="258" r="12" fill="#1B2430"/>
  <circle cx="473" cy="258" r="6" fill="#FAF9F6"/>
  <g transform="translate(529,182)">
    <polygon points="-40,-14 -23,-32 23,-32 40,-14 0,36" fill="#E0504B"/>
    <polygon points="-23,-32 23,-32 14,-14 -14,-14" fill="#F58A8A"/>
    <polygon points="-40,-14 -23,-32 -14,-14 0,36" fill="#B82F2A"/>
    <polygon points="40,-14 23,-32 14,-14 0,36" fill="#CE3E38"/>
    <polygon points="-14,-14 14,-14 0,36" fill="#E8534E"/>
    <polygon points="-14,-14 14,-14 6,-2 -6,-2" fill="#FBA9A9" opacity="0.6"/>
  </g>
  </g>
  <text x="351" y="165" font-family="Consolas, 'DejaVu Sans Mono', 'Courier New', monospace" font-weight="700" font-size="112"><tspan fill="#7FB0DA">PL</tspan><tspan fill="#E8E8ED">/</tspan><tspan fill="#E8534E">ruby</tspan></text>
  <text x="354" y="209" font-family="Arial, sans-serif" font-size="24" letter-spacing="1" fill="#9CA3AF">PROCEDURAL LANGUAGE FOR POSTGRESQL</text>
</svg>
